HIERARCHY
ROOT joint_Root
{
	OFFSET 0.0 0.0 0.0
	CHANNELS 6 Xposition Yposition Zposition Zrotation Xrotation Yrotation 
	JOINT Hips
	{
		OFFSET -0.726466 93.3139 -2.00062
		CHANNELS 6 Xposition Yposition Zposition Zrotation Xrotation Yrotation 
		JOINT Spine
		{
			OFFSET 15.7357 0.0 0.0
			CHANNELS 6 Xposition Yposition Zposition Zrotation Xrotation Yrotation 
			JOINT Chest
			{
				OFFSET 8.98455 -0.406207 0.0
				CHANNELS 6 Xposition Yposition Zposition Zrotation Xrotation Yrotation 
				JOINT Neck
				{
					OFFSET 16.3773 0.0 0.0
					CHANNELS 6 Xposition Yposition Zposition Zrotation Xrotation Yrotation 
					JOINT Head
					{
						OFFSET 6.45672 0.0 0.0
						CHANNELS 6 Xposition Yposition Zposition Zrotation Xrotation Yrotation 
						End Site
						{
							OFFSET 0.0 0.0 0.0
						}
					}
				}
				JOINT Shoulder_L
				{
					OFFSET 12.9942 -0.242716 4.98039
					CHANNELS 6 Xposition Yposition Zposition Zrotation Xrotation Yrotation 
					JOINT UpperArm_L
					{
						OFFSET 5.34809 0.0 0.0
						CHANNELS 6 Xposition Yposition Zposition Zrotation Xrotation Yrotation 
						JOINT LowerArm_L
						{
							OFFSET 24.3286 1.87007e-05 0.0
							CHANNELS 6 Xposition Yposition Zposition Zrotation Xrotation Yrotation 
							JOINT Hand_L
							{
								OFFSET 22.2916 0.0 0.0
								CHANNELS 6 Xposition Yposition Zposition Zrotation Xrotation Yrotation 
								End Site
								{
									OFFSET 0.0 0.0 0.0
								}
							}
						}
					}
				}
				JOINT Shoulder_R
				{
					OFFSET 12.9945 -0.242716 -4.98039
					CHANNELS 6 Xposition Yposition Zposition Zrotation Xrotation Yrotation 
					JOINT UpperArm_R
					{
						OFFSET -5.34813 0.0 0.0
						CHANNELS 6 Xposition Yposition Zposition Zrotation Xrotation Yrotation 
						JOINT LowerArm_R
						{
							OFFSET -24.3289 0.000322201 0.0
							CHANNELS 6 Xposition Yposition Zposition Zrotation Xrotation Yrotation 
							JOINT Hand_R
							{
								OFFSET -22.2915 -0.000108084 0.0
								CHANNELS 6 Xposition Yposition Zposition Zrotation Xrotation Yrotation 
								End Site
								{
									OFFSET 0.0 0.0 0.0
								}
							}
						}
					}
				}
			}
		}
		JOINT UpperLeg_L
		{
			OFFSET -2.19248 -6.46944 0.0
			CHANNELS 6 Xposition Yposition Zposition Zrotation Xrotation Yrotation 
			JOINT LowerLeg_L
			{
				OFFSET 39.0811 0.0 -1.23785e-05
				CHANNELS 6 Xposition Yposition Zposition Zrotation Xrotation Yrotation 
				JOINT Foot_L
				{
					OFFSET 40.9854 0.0 -1.26872e-05
					CHANNELS 6 Xposition Yposition Zposition Zrotation Xrotation Yrotation 
					JOINT Toes_L
					{
						OFFSET 11.7543 0.0 0.0
						CHANNELS 6 Xposition Yposition Zposition Zrotation Xrotation Yrotation 
						End Site
						{
							OFFSET 0.0 0.0 0.0
						}
					}
				}
			}
		}
		JOINT UpperLeg_R
		{
			OFFSET -2.19251 6.46944 0.0
			CHANNELS 6 Xposition Yposition Zposition Zrotation Xrotation Yrotation 
			JOINT LowerLeg_R
			{
				OFFSET -39.0811 -0.00228153 -0.0401928
				CHANNELS 6 Xposition Yposition Zposition Zrotation Xrotation Yrotation 
				JOINT Foot_R
				{
					OFFSET -40.9854 0.0 0.0
					CHANNELS 6 Xposition Yposition Zposition Zrotation Xrotation Yrotation 
					JOINT Toes_R
					{
						OFFSET -11.7543 0.0 0.0
						CHANNELS 6 Xposition Yposition Zposition Zrotation Xrotation Yrotation 
						End Site
						{
							OFFSET 0.0 0.0 0.0
						}
					}
				}
			}
		}
	}
}
MOTION
Frames:	6
Frame Time:	0.0333333
0.000000 0.000000 0.000000 0.000000 0.000000 -0.000000 -0.439478 91.957800 2.535450 87.878500 -1.556710 3.497380 15.735700 0.000005 -0.000001 79.571900 85.914400 -79.013500 8.984550 -0.406207 -0.000000 0.278177 -1.515070 1.119880 16.377300 -0.000001 -0.000001 1.120450 -1.009410 0.141379 6.456720 -0.000001 -0.000000 4.222640 0.184952 -0.564021 12.994200 -0.242716 4.980390 -89.724000 -0.833032 -71.669300 5.348090 -0.000007 -0.000001 -68.912000 35.394300 -12.667900 24.328600 0.000019 0.000005 2.606510 5.871210 -23.989800 22.291600 -0.000001 0.000005 5.859450 5.571790 -9.778220 12.994500 -0.242716 -4.980390 88.587500 4.362110 -72.037400 -5.348130 -0.000001 -0.000004 -67.052300 30.590300 -12.850000 -24.328900 0.000322 -0.000009 -0.117710 -0.283127 -22.384000 -22.291500 -0.000108 -0.000004 7.390840 5.567950 -9.583850 -2.192480 -6.469440 -0.000000 -169.365000 -18.145200 -2.034380 39.081100 -0.000007 -0.000012 -0.199793 0.479645 22.614200 40.985400 -0.000006 -0.000013 -6.672170 -1.888470 -64.855600 11.754300 -0.000000 0.000003 -0.000149 -0.001444 -16.632500 -2.192510 6.469440 -0.000001 172.879000 21.293400 -178.735000 -39.081100 -0.002282 -0.040193 -0.072913 0.234120 18.037200 -40.985400 0.000008 0.000006 -5.574430 3.334740 -63.014300 -11.754300 -0.000006 -0.000006 -0.002814 -0.038482 -18.138000
0.000000 0.000000 0.000000 0.000000 0.000000 -0.000000 -0.427940 91.957800 2.465860 87.919100 -1.549380 3.592930 15.735700 0.000005 -0.000001 79.472400 85.906900 -78.937700 8.984550 -0.406207 -0.000000 0.289958 -1.530130 1.072650 16.377300 -0.000001 -0.000001 0.858592 -0.992783 0.195448 6.456720 -0.000001 -0.000000 4.118180 0.214571 -0.516941 12.994200 -0.242716 4.980390 -89.717500 -0.852196 -71.660300 5.348090 -0.000007 -0.000001 -69.046200 33.202800 -12.133300 24.328600 0.000019 0.000005 3.097760 6.699100 -24.886400 22.291600 -0.000001 0.000005 6.308070 5.584710 -10.467000 12.994500 -0.242716 -4.980390 88.656200 4.142950 -72.011900 -5.348130 -0.000001 -0.000004 -66.726400 28.800100 -12.742500 -24.328900 0.000322 -0.000009 -0.224363 -0.527081 -22.960500 -22.291500 -0.000108 -0.000004 7.464400 5.566170 -9.493760 -2.192480 -6.469440 -0.000000 -169.402000 -18.125000 -2.002230 39.081100 -0.000007 -0.000012 -0.199408 0.478198 22.636400 40.985400 -0.000006 -0.000013 -6.653440 -1.919340 -64.821700 11.754300 -0.000000 0.000003 -0.000168 -0.001600 -16.638200 -2.192510 6.469440 -0.000001 172.813000 21.235600 -178.721000 -39.081100 -0.002282 -0.040193 -0.074946 0.239357 18.108000 -40.985400 0.000008 0.000006 -5.608080 3.295730 -63.005500 -11.754300 -0.000006 -0.000006 -0.002737 -0.037593 -18.101900
0.000000 0.000000 0.000000 0.000000 0.000000 -0.000000 -0.407349 91.957300 2.403190 87.912400 -1.505750 3.663890 15.735700 0.000005 -0.000001 79.591700 85.901700 -79.078000 8.984550 -0.406207 -0.000000 0.302947 -1.513820 1.030740 16.377300 -0.000001 -0.000001 0.669782 -1.033820 0.289853 6.456720 -0.000001 -0.000000 3.945320 0.166610 -0.362438 12.994200 -0.242716 4.980390 -89.690700 -0.929178 -71.586500 5.348090 -0.000007 -0.000001 -68.668500 30.104200 -12.072500 24.328600 0.000019 0.000005 3.333230 7.053940 -25.373100 22.291600 -0.000001 0.000005 6.842520 5.591880 -10.868000 12.994500 -0.242716 -4.980390 88.708800 3.946170 -71.866200 -5.348130 -0.000001 -0.000004 -65.744900 26.847300 -12.966500 -24.328900 0.000322 -0.000009 -0.310515 -0.709456 -23.566900 -22.291500 -0.000108 -0.000004 7.684390 5.564330 -9.401640 -2.192480 -6.469440 -0.000000 -169.397000 -18.133700 -2.015180 39.081100 -0.000007 -0.000012 -0.198647 0.474826 22.702600 40.985400 -0.000006 -0.000013 -6.609180 -1.849860 -64.809200 11.754300 -0.000000 0.000003 -0.000156 -0.001501 -16.634600 -2.192510 6.469440 -0.000001 172.814000 21.233100 -178.734000 -39.081100 -0.002282 -0.040193 -0.071875 0.228796 18.194400 -40.985400 0.000008 0.000006 -5.509740 3.260230 -63.017000 -11.754300 -0.000006 -0.000006 -0.002900 -0.039464 -18.178000
0.000000 0.000000 0.000000 0.000000 0.000000 -0.000000 -0.403200 91.954900 2.354010 87.939300 -1.404480 3.807930 15.735700 0.000005 -0.000001 79.721600 85.885600 -79.253700 8.984550 -0.406207 -0.000000 0.337219 -1.498160 0.939594 16.377300 -0.000001 -0.000001 0.576091 -1.137640 0.385732 6.456720 -0.000001 -0.000000 3.816230 0.001508 -0.122474 12.994200 -0.242716 4.980390 -89.626900 -1.112340 -71.457400 5.348090 -0.000007 -0.000001 -67.333000 26.710800 -12.890500 24.328600 0.000019 0.000005 3.235770 6.988110 -24.923900 22.291600 -0.000001 0.000005 7.488360 5.593510 -10.961800 12.994500 -0.242716 -4.980390 88.813700 3.596540 -71.731900 -5.348130 -0.000001 -0.000004 -64.121200 24.691400 -13.586900 -24.328900 0.000322 -0.000009 -0.205151 -0.462680 -23.802200 -22.291500 -0.000108 -0.000004 7.621870 5.565010 -9.435490 -2.192480 -6.469440 -0.000000 -169.392000 -18.076600 -1.949950 39.081100 -0.000007 -0.000012 -0.201129 0.479935 22.737600 40.985400 -0.000006 -0.000013 -6.587540 -1.814330 -64.774200 11.754300 -0.000000 0.000003 -0.000142 -0.001389 -16.630400 -2.192510 6.469440 -0.000001 172.736000 21.277900 -178.632000 -39.081100 -0.002282 -0.040193 -0.073122 0.231568 18.269500 -40.985400 0.000008 0.000006 -5.515040 3.171890 -63.036000 -11.754300 -0.000006 -0.000006 -0.002846 -0.038849 -18.153000
0.000000 0.000000 0.000000 0.000000 0.000000 -0.000000 -0.407320 91.949500 2.292050 87.954600 -1.253020 4.000270 15.735700 0.000005 -0.000001 79.519800 85.868000 -79.084600 8.984550 -0.406207 -0.000000 0.366320 -1.530820 0.874733 16.377300 -0.000001 -0.000001 0.600349 -1.220880 0.492778 6.456720 -0.000001 -0.000000 3.785550 -0.135131 -0.028009 12.994200 -0.242716 4.980390 -89.563500 -1.290760 -71.313900 5.348090 -0.000007 -0.000001 -65.138700 22.390500 -14.323500 24.328600 0.000019 0.000005 3.551560 8.070390 -23.850900 22.291600 -0.000001 0.000005 7.710070 5.595300 -11.065200 12.994500 -0.242716 -4.980390 88.961500 3.114840 -71.551000 -5.348130 -0.000001 -0.000004 -61.760100 22.108600 -14.810300 -24.328900 0.000322 -0.000009 -0.087172 -0.198602 -23.432500 -22.291500 -0.000108 -0.000004 7.594810 5.562310 -9.302080 -2.192480 -6.469440 -0.000000 -169.372000 -17.914300 -1.857510 39.081100 -0.000007 -0.000012 -0.200250 0.476434 22.797800 40.985400 -0.000006 -0.000013 -6.566360 -1.765150 -64.757300 11.754300 -0.000000 0.000003 -0.000141 -0.001381 -16.630100 -2.192510 6.469440 -0.000001 172.652000 21.298300 -178.477000 -39.081100 -0.002282 -0.040193 -0.074010 0.233234 18.344200 -40.985400 0.000008 0.000006 -5.534340 3.118220 -63.060700 -11.754300 -0.000006 -0.000006 -0.003040 -0.041052 -18.242600
0.000000 0.000000 0.000000 0.000000 0.000000 -0.000000 -0.402086 91.947700 2.235480 88.008400 -1.113390 4.167380 15.735700 0.000005 -0.000001 79.396000 85.870100 -79.008300 8.984550 -0.406207 -0.000000 0.358319 -1.544560 0.779766 16.377300 -0.000001 -0.000001 0.681312 -1.319620 0.549022 6.456720 -0.000001 -0.000000 3.720300 -0.266707 0.094366 12.994200 -0.242716 4.980390 -89.418200 -1.708560 -71.192800 5.348090 -0.000007 -0.000001 -62.884100 16.702500 -15.993000 24.328600 0.000019 0.000005 3.364500 8.254750 -22.266900 22.291600 -0.000001 0.000005 8.047900 5.593300 -10.950500 12.994500 -0.242716 -4.980390 89.118900 2.600970 -71.277600 -5.348130 -0.000001 -0.000004 -59.121900 18.088300 -16.425500 -24.328900 0.000322 -0.000009 0.065765 0.162284 -22.373500 -22.291500 -0.000108 -0.000004 7.744250 5.559240 -9.150040 -2.192480 -6.469440 -0.000000 -169.399000 -17.830900 -1.775780 39.081100 -0.000007 -0.000012 -0.200653 0.476920 22.818100 40.985400 -0.000006 -0.000013 -6.530570 -1.702970 -64.708300 11.754300 -0.000000 0.000003 -0.000154 -0.001481 -16.633800 -2.192510 6.469440 -0.000001 172.518000 21.363000 -178.332000 -39.081100 -0.002282 -0.040193 -0.076501 0.240013 18.396500 -40.985400 0.000008 0.000006 -5.607820 3.100750 -63.063200 -11.754300 -0.000006 -0.000006 -0.002920 -0.039698 -18.187500
